{"title":"MARY KOM (2014) - 1CD - DVDRIP - Hindi - x264 - MP3 - ESUBS - TE","uid":11214483,"size":740315751,"categoryP":"video","categoryS":"movies_dvdr","magnet":"?xt=urn:btih:110f0fbaa24a5722cd10f17dbf8574c3f590da55&amp;dn=MARY+KOM+%282014%29+-+1CD+-+DVDRIP+-+Hindi+-+x264+-+MP3+-+ESUBS+-+TE&amp;tr=udp%3A%2F%2Ftracker.openbittorrent.com%3A80&amp;tr=udp%3A%2F%2Fopen.demonii.com%3A1337&amp;tr=udp%3A%2F%2Ftracker.coppersurfer.tk%3A6969&amp;tr=udp%3A%2F%2Fexodus.desync.com%3A6969","seeders":3,"leechers":1,"uploader":"inovai","files":4,"time":1413311746,"description":"MARY KOM (2014) - 1CD - DVDRip - Hindi - x264 - MP3 - ESUBS - TEAMTNT EXCLUSIVE\n\nCover:\n &lt;a href=&quot;\nhttp://forum.primetimeshow.in/viewtopic.php?f=7&amp;t=589&quot; rel=&quot;nofollow&quot; target=&quot;_NEW&quot;&gt;\nhttp://forum.primetimeshow.in/viewtopic.php?f=7&amp;t=589&lt;/a&gt;\n\nPlot:\n\nA chronicle of the life of Indian boxer Mary Kom, who went through several hardships before audaciously accomplishing her ultimate dream.\n\nDirector: Omung Kumar\nWriters: Saiwyn Qadras (story), Ramendra Vasishth (dialogue), 1 more credit Â»\nStars: Priyanka Chopra, Zachary Coffin, Darshan Kumaar\n\nRatings: 6.8/10\n\nGENRE: Biography | Drama | Sport\n\nScreenshots:\n &lt;a href=&quot;\nhttp://m.primetimeshow.in/share-C3C4_543D506B.html&quot; rel=&quot;nofollow&quot; target=&quot;_NEW&quot;&gt;\nhttp://m.primetimeshow.in/share-C3C4_543D506B.html&lt;/a&gt;\n &lt;a href=&quot;\nhttp://m.primetimeshow.in/share-3DE4_543D506B.html&quot; rel=&quot;nofollow&quot; target=&quot;_NEW&quot;&gt;\nhttp://m.primetimeshow.in/share-3DE4_543D506B.html&lt;/a&gt;\n &lt;a href=&quot;\nhttp://m.primetimeshow.in/share-0516_543D506B.html&quot; rel=&quot;nofollow&quot; target=&quot;_NEW&quot;&gt;\nhttp://m.primetimeshow.in/share-0516_543D506B.html&lt;/a&gt;\n &lt;a href=&quot;\nhttp://m.primetimeshow.in/share-E8DD_543D506B.html&quot; rel=&quot;nofollow&quot; target=&quot;_NEW&quot;&gt;\nhttp://m.primetimeshow.in/share-E8DD_543D506B.html&lt;/a&gt;\n &lt;a href=&quot;\nhttp://m.primetimeshow.in/share-948D_543D506B.html&quot; rel=&quot;nofollow&quot; target=&quot;_NEW&quot;&gt;\nhttp://m.primetimeshow.in/share-948D_543D506B.html&lt;/a&gt;\n\n\nGeneral\nUnique ID : 254827391815966408614699804923098415656 (0xBFB5F86FBA957C389D7B31A6D431C228)\nComplete name : MARY KOM (2014) - 1CD - DVDRIP - Hindi - x264 - MP3 - ESUBS - TEAMTNT EXCLUSIVE.mkv\nFormat : Matroska\nFormat version : Version 2\nFile size : 700 MiB\nDuration : 2h 1mn\nOverall bit rate : 809 Kbps\nEncoded date : UTC 2014-10-14 13:24:24\nWriting application : mkvmerge v7.2.0 ('On Every Street') 32bit built on Sep 13 2014 15:42:11\nWriting library : libebml v1.3.0 + libmatroska v1.4.1\n\n\nVideo\nID : 1\nFormat : AVC\nFormat/Info : Advanced Video Codec\nFormat profile : &lt;a class=&quot;__cf_email__&quot; href=&quot;/cdn-cgi/l/email-protection&quot; data-cfemail=&quot;c78faea0af878bf5e9f6&quot;&gt;[email&amp;#160;protected]&lt;/a&gt;&lt;script cf-hash='f9e31' type=&quot;text/javascript&quot;&gt;\n/* &lt;![CDATA[ */!function(){try{var t=&quot;currentScript&quot;in document?document.currentScript:function(){for(var t=document.getElementsByTagName(&quot;script&quot;),e=t.length;e--;)if(t[e].getAttribute(&quot;cf-hash&quot;))return t[e]}();if(t&amp;&amp;t.previousSibling){var e,r,n,i,c=t.previousSibling,a=c.getAttribute(&quot;data-cfemail&quot;);if(a){for(e=&quot;&quot;,r=parseInt(a.substr(0,2),16),n=2;a.length-n;n+=2)i=parseInt(a.substr(n,2),16)^r,e+=String.fromCharCode(i);e=document.createTextNode(e),c.parentNode.replaceChild(e,c)}}}catch(u){}}();/* ]]&gt; */&lt;/script&gt;\nFormat settings, CABAC : Yes\nFormat settings, ReFrames : 4 frames\nCodec ID : V_MPEG4/ISO/AVC\nDuration : 2h 1mn\nBit rate : 727 Kbps\nWidth : 640 pixels\nHeight : 272 pixels\nDisplay aspect ratio : 2.35:1\nFrame rate mode : Constant\nFrame rate : 23.976 fps\nColor space : YUV\nChroma subsampling : 4:2:0\nBit depth : 8 bits\nScan type : Progressive\nBits/(Pixel*Frame) : 0.174\nStream size : 617 MiB (88%)\nWriting library : x264 core 142 r2479 dd79a61\nLanguage : English\nDefault : Yes\nForced : No\n\n\nAudio\nID : 2\nFormat : MPEG Audio\nFormat version : Version 1\nFormat profile : Layer 3\nMode : Joint stereo\nMode extension : MS Stereo\nCodec ID : A_MPEG/L3\nCodec ID/Hint : MP3\nDuration : 2h 1mn\nBit rate mode : Constant\nBit rate : 80.0 Kbps\nChannel(s) : 2 channels\nSampling rate : 32.0 KHz\nCompression mode : Lossy\nStream size : 69.3 MiB (10%)\nWriting library : LAME3.99r\nEncoding settings : -m j -V 4 -q 2 -lowpass 13.5 -b 80\nDefault : Yes\nForced : No\n\nSAMPLE WITH IN TORRENT\n\nSource Own @ TeamTNT!!\n\nThanks to TEAMTNT!!\n\nSeed n ENjoy!!","torrent":{"xt":"urn:btih:110f0fbaa24a5722cd10f17dbf8574c3f590da55","amp;dn":"MARY+KOM+%282014%29+-+1CD+-+DVDRIP+-+Hindi+-+x264+-+MP3+-+ESUBS+-+TE","amp;tr":["udp%3A%2F%2Ftracker.openbittorrent.com%3A80","udp%3A%2F%2Fopen.demonii.com%3A1337","udp%3A%2F%2Ftracker.coppersurfer.tk%3A6969","udp%3A%2F%2Fexodus.desync.com%3A6969"],"infoHash":"110f0fbaa24a5722cd10f17dbf8574c3f590da55","infoHashBuffer":{"type":"Buffer","data":[17,15,15,186,162,74,87,34,205,16,241,125,191,133,116,195,245,144,218,85]},"announce":[],"urlList":[]}}